<?xml version="1.0" standalone="no"?><!DOCTYPE svg PUBLIC "-//W3C//DTD SVG 1.1//EN" "http://www.w3.org/Graphics/SVG/1.1/DTD/svg11.dtd"><svg t="1609153944959" class="icon" viewBox="0 0 1024 1024" version="1.1" xmlns="http://www.w3.org/2000/svg" p-id="6784" xmlns:xlink="http://www.w3.org/1999/xlink" width="200" height="200"><defs><style type="text/css"></style></defs><path d="M328.84786 87.4c3 15.1 6 27.2 9.1 39.2-108.6 51.3-178 111.6-190.1 181 9.1 63.4 72.4 87.5 153.9 93.5 24.1-166 75.4-337.9 199.1-371.1 90.5-15.1 150.9 60.3 190.1 144.8-15.1 3-27.2 9.1-42.2 12.1-18.1-15.1-36.2-24.1-60.3-12.1-60.4 45.3-84.5 123.7-93.5 208.2 144.8-21.1 344-117.7 344-217.3 0-60.3-48.3-78.5-102.6-87.5-3-18.1-6-39.2-12.1-57.3 169-3 313.8 81.5 298.7 190.1-48.3 223.3-344 307.8-531 347 0 169 30.2 271.6 93.5 286.7 30.2 0 57.3-42.2 84.5-190.1 27.2-6 51.3-15.1 78.5-21.1C721.24786 862.8 624.74786 998.6 537.24786 1004.6c-90.5 6-159.9-78.5-202.2-208.2-21.1-63.4-36.2-135.8-39.2-220.3-154-15-289.8-54.2-295.8-174.9-3.1-123.7 144.8-253.5 328.8-313.8z" fill="#025BA4" p-id="6785"></path></svg>