<?xml version="1.0" standalone="no"?><!DOCTYPE svg PUBLIC "-//W3C//DTD SVG 1.1//EN" "http://www.w3.org/Graphics/SVG/1.1/DTD/svg11.dtd"><svg t="1610336177568" class="icon" viewBox="0 0 1024 1024" version="1.1" xmlns="http://www.w3.org/2000/svg" p-id="7865" xmlns:xlink="http://www.w3.org/1999/xlink" width="128" height="128"><defs><style type="text/css"></style></defs><path d="M449.9456 842.512091H238.738286c-28.800731 0-53.482057-21.486446-56.349257-50.170148-3.19488-32.914286 22.97856-61.0304 55.319405-61.0304h205.712823a326.217143 326.217143 0 0 1 36.343223-117.713189H224.577829a43.651657 43.651657 0 0 1-43.657509-43.651657v-13.376366a43.651657 43.651657 0 0 1 43.651657-43.651657h337.832229c56.571611-46.173623 128.801646-73.833326 207.54432-73.833325a326.498011 326.498011 0 0 1 108.228023 18.285714V183.313554c0-50.287177-50.743589-80.223086-101.943589-80.223085h-162.511726c-15.7696 0-30.5152-8.578194-38.057691-22.40512-11.199634-20.339566-26.284617-37.60128-45.489006-51.884618C504.34048 9.596343 474.404571 0 440.454583 0c-33.938286 0-63.885897 9.485166-89.714103 28.683703-19.081509 14.17216-34.28352 31.428023-45.600183 51.890468a43.546331 43.546331 0 0 1-38.05184 22.399269H104.342674C52.001646 102.97344 0.117029 110.744137 0.117029 183.196526v737.262445c0 73.259886 57.1392 103.084617 104.225645 103.084618h459.541943c-56.1152-45.254949-97.028389-108.456229-113.939017-181.031498zM399.652571 105.033143c10.8544-10.626194 24.341943-16.114834 40.684983-16.114834s29.830583 5.371611 40.684983 16.114834c10.860251 10.743223 16.226011 24.113737 16.226012 40.117394 0 16.114834-5.482789 29.94176-16.226012 41.486629-10.8544 11.656046-24.458971 17.484069-40.684983 17.484068-16.231863 0-29.830583-5.828023-40.684983-17.372891-10.860251-11.544869-16.231863-25.482971-16.231862-41.486629 0-16.114834 5.260434-29.485349 16.231862-40.228571zM180.914469 335.54432a43.651657 43.651657 0 0 1 43.651657-43.657509h431.43168a43.651657 43.651657 0 0 1 43.657508 43.651658v15.775451h-0.117028a43.651657 43.651657 0 0 1-43.651657 43.657509H224.571977a43.651657 43.651657 0 0 1-43.657508-43.651658v-15.775451z" fill="#F16869" p-id="7866" data-spm-anchor-id="a313x.7781069.0.i17" class="selected"></path><path d="M768.117029 514.17088c-140.346514 0-254.291383 113.944869-254.291383 254.285531s113.944869 254.285531 254.291383 254.285532c140.340663 0 254.285531-113.939017 254.285531-254.285532 0-140.340663-113.944869-254.285531-254.285531-254.285531z m0 461.37344c-22.633326 0-45.2608-22.627474-45.2608-45.2608 0-22.627474 22.627474-45.254949 45.2608-45.254949 22.627474 0 45.254949 22.627474 45.254948 45.254949 0 28.233143-22.627474 45.2608-45.254948 45.2608z m45.254948-170.627657c0 22.627474-22.627474 45.254949-45.254948 45.254948-22.633326 0-45.2608-22.627474-45.2608-45.254948v-209.258789c0-22.627474 22.627474-45.254949 45.2608-45.254948 22.627474 0 45.254949 16.910629 45.254948 45.254948v209.258789z" fill="#FDD0D0" p-id="7867" data-spm-anchor-id="a313x.7781069.0.i20" class="selected"></path></svg>