<?xml version="1.0" standalone="no"?><!DOCTYPE svg PUBLIC "-//W3C//DTD SVG 1.1//EN" "http://www.w3.org/Graphics/SVG/1.1/DTD/svg11.dtd"><svg t="1609229469429" class="icon" viewBox="0 0 1046 1024" version="1.1" xmlns="http://www.w3.org/2000/svg" p-id="2549" xmlns:xlink="http://www.w3.org/1999/xlink" width="204.296875" height="200"><defs><style type="text/css"></style></defs><path d="M629.924351 994.051412a605.561978 605.561978 0 0 0 406.856378-157.118269v42.681734c-252.783406 206.675712-621.573577 189.617293-851.826546-39.255776C-45.322578 611.46224-62.61891 247.668259 145.127414 0H188.427724a589.835877 589.835877 0 0 0-109.083474 640.511515c95.236892 215.193026 311.667069 353.539897 550.580101 353.539897zM113.960707 237.437966c-3.473541 10.230293-6.923291 20.484378-8.660062 32.451441l-24.267207-6.828126c1.736771-10.230293 5.210312-22.197357 8.660062-32.451441l24.267207 6.828126z m-15.607145 63.189903c-1.736771 10.254084-3.44975 20.508169-5.18652 32.451442l-24.243416-3.402167c1.736771-11.967064 3.473541-22.221148 5.210312-34.164421l24.219624 5.115146z m-10.373041 95.641345H63.760897c0-11.943272 1.736771-22.197357 1.73677-34.140629l24.219625 1.689188c-1.712979 10.254084-1.712979 20.508169-1.71298 32.475233zM138.227914 177.65023c-5.186521 10.254084-8.636271 20.508169-13.846583 29.025482l-22.482853-8.517313c3.44975-10.254084 8.636271-20.508169 13.846583-30.738463l22.482853 10.230294z m67.519935-107.608409c-6.947083 8.564897-13.870374 17.08221-19.033104 25.623315l-20.817457-13.656251c6.947083-10.230293 13.870374-18.79519 20.793666-27.336295l19.056895 15.369231z m245.860114 862.556458l8.63627-22.197357c10.396833 3.402167 20.769874 5.115147 31.166707 8.541105l-6.923291 23.910336c-12.133603-3.425959-22.506645-6.851917-32.879686-10.254084zM169.394621 121.288452h-0.023791c-6.923291 10.230293-12.133603 18.771398-17.320125 29.025483l-22.482853-11.967064c6.8995-10.230293 12.109812-20.484378 17.296333-29.025483l22.530436 11.943273z m855.300087 643.88989l12.109812 10.254085v15.369231l-6.923291 6.828126c-3.44975 1.712979-6.923291 5.138938-10.373041 8.564896l-17.320125-17.106001 8.660062-10.230293 13.846583-13.680044zM247.287597 23.910336c-6.947083 6.828126-13.870374 13.656252-19.080686 20.508169l-19.033104-17.08221 20.769874-20.508169 3.473542-3.402167 17.320124 17.08221-3.44975 3.402167zM650.694225 935.976655c12.133603-1.689188 22.506645-1.689188 32.903478-1.689188l1.712979 23.910336c-12.109812 0-22.482853 1.712979-34.616457 1.712979V935.952863z m65.806955-6.828126c10.373041-1.689188 20.769874-3.402167 31.166707-6.828126l6.8995 23.910336c-12.109812 3.425959-22.482853 5.138938-34.616457 6.828126l-3.44975-23.910336z m-199.133845 20.508169l5.234104-23.910336c12.086021 1.712979 22.482853 3.402167 32.879686 5.115146l-3.473541 23.910336c-12.133603-1.712979-22.506645-3.402167-34.616457-5.115146z m65.806955 8.541105l1.736771-23.910336c10.373041 1.689188 20.769874 1.689188 32.879686 1.689188v23.934127c-12.109812 0-22.482853 0-34.616457-1.712979z m195.660304-42.705526l31.166707-10.230293 8.660062 23.886545c-10.420624 3.425959-20.793666 6.828126-32.903477 10.254084l-6.923292-23.910336z m62.333414-22.197357c8.636271-3.425959 19.033103-8.564897 29.406145-13.680043l12.133603 22.221148c-10.396833 5.115147-20.769874 8.541105-31.166707 13.656252l-10.373041-22.197357z m112.533224-63.213695c8.660062-6.828126 15.583353-13.656252 25.956395-18.795189l15.583354 18.795189-25.956395 20.508169-15.583354-20.508169z m-55.410122 34.164421c10.396833-5.115147 19.033103-10.230293 27.693165-15.369231l13.846583 20.508169c-10.373041 5.115147-19.033103 11.943272-29.429936 17.08221l-12.109812-22.221148z m-657.926805-90.526198l5.210313 5.138938c5.186521 6.828126 12.109812 11.943272 17.296332 17.08221l-17.320124 18.79519-17.320124-17.106002-6.8995-6.828126 19.033103-17.08221z m32.903478 61.500715l15.583354-18.795189c8.660062 6.828126 17.320124 11.967064 25.956394 18.795189l-13.846582 20.484378a379.710414 379.710414 0 0 1-27.693166-20.484378zM88.004312 428.720656c1.712979 10.230293 1.712979 20.484378 3.44975 32.451441l-24.219624 3.402167c-1.736771-11.943272-3.473541-22.197357-3.473541-34.16442L88.028104 428.720656z m74.467018 242.529321h-0.047583c5.210312 10.230293 10.396833 18.79519 15.607145 27.336295l-20.793666 13.656251c-5.210312-10.230293-12.133603-18.79519-17.320124-29.025482l22.554228-11.967064z m15.559562 68.30505l19.033103-15.369231 20.793666 25.623315-19.033104 15.369231-20.793665-25.623315zM110.510957 553.387484c3.473541 10.254084 6.923291 20.508169 8.660062 30.762253l-22.530436 8.517314c-3.44975-10.230293-6.8995-20.484378-10.373042-32.451442l24.267207-6.828125z m218.166949 321.112246l13.822791-22.197356c8.660062 5.115147 19.080686 11.943272 27.716957 17.08221l-12.133604 22.197357c-10.373041-5.138938-19.033103-10.230293-29.429936-17.082211zM96.616792 491.910559l5.234103 30.738462-24.267207 6.828126a239.031988 239.031988 0 0 1-6.8995-34.16442l25.932604-3.402168z m36.377019 121.264661c3.568707 10.135128 8.208026 19.889593 13.846582 29.025483l-22.506645 11.967063c-5.186521-10.230293-8.636271-20.508169-13.846582-30.738462l22.506645-10.254084zM387.537778 906.927381l10.373042-22.197357c9.302429 5.567183 19.175852 10.158919 29.429936 13.656251l-8.660062 22.197357c-10.373041-5.115147-20.769874-8.541105-31.166707-13.656251z m226.827011-136.633892h-0.023792c-107.370495-3.425959-209.506886-54.67259-277.026821-138.346871-65.783164-85.411052-93.500121-194.708649-70.969684-298.91489l24.219624 5.138938c-3.44975 18.79519-6.923291 39.255776-6.923291 58.050966-5.186521 187.904314 143.723723 343.309604 332.413152 350.161521 22.530436 0 45.037081-1.712979 67.543726-5.138938l3.44975 23.910336a362.580621 362.580621 0 0 1-60.572852 5.138938h-12.133604z m6.8995-705.414398c-13.846583 0-27.693166 1.712979-39.802978 3.425959l-3.497333-25.623315c13.846583-1.712979 29.429936-3.425959 43.300311-3.425959 109.059683 0 212.932845 46.131485 282.165759 128.116578 71.017267 80.272114 100.447204 189.569711 83.127079 295.488931l-24.219624-3.425959c3.44975-18.79519 5.186521-37.590379 5.186521-58.074756a329.748518 329.748518 0 0 0-102.136392-239.103363c-65.806955-63.213695-152.383785-97.378116-244.123343-97.378116z m-130.115054 161.78138l73.46778-35.806026 13.703834 19.913385-49.533652 22.76835 31.642535 33.926507c19.033103-9.944797 37.614171-21.412241 56.504526-34.14063l14.441367 20.222673c-18.366945 12.228769-36.40081 22.696976-53.911266 32.189736l90.54999 97.092619-16.701548 15.583353-95.165517-102.065017c-10.801286 5.186521-21.293285 9.611717-31.523578 13.323173l83.721864 89.764874-15.131317 14.108288c-22.578019 9.82584-49.652609 11.657776-81.271352 5.995427 6.709169 24.980948 17.367707 52.626531 31.951822 82.936749l-22.93489 5.757514c-15.440605-34.878162-26.2181-66.306574-32.046988-94.023532-26.503597-7.494284-55.88595-19.627888-87.861563-36.638724l7.113622-22.744558c27.978662 15.369231 53.601978 26.598762 76.322745 34.212003-2.640843-25.837438-1.094403-48.248917 4.877233-67.496143-45.631866 12.300143-88.646679 14.845821-129.544061 7.613241l7.637033-23.743796c55.267374 7.993903 112.652181-1.094403 171.416888-27.598l-47.725507-51.151466z m18.033866 98.353562c-6.233341 19.48514-7.06604 43.181354-2.450512 70.113195 26.574971 5.971636 49.271947 6.257133 68.424007 0.618576l-65.973495-70.731771z m157.403765-38.946488c3.069088 21.079162 4.163491 40.040891 3.568707 57.194476l-24.219624-0.85649c1.308526-15.845059 0.713741-34.806788-1.784353-57.361015l22.43527 1.023029z m7.970112-97.687403c-3.663872 10.729912-8.612479 22.173566-14.346201 34.354751l86.648203 92.905337-18.271779 17.034627-179.624914-192.615007-60.02565 55.981116c-57.860635 52.007955-112.057397 85.458635-162.542704 99.87621l-0.594784-26.789093c43.871304-12.609431 92.667423-42.967231 145.864946-91.620602l78.29743-73.015743 92.001264 98.66285c4.425197-10.944034 8.326983-21.412241 10.944034-31.690117l21.650155 16.915671z m105.943013 198.372521l104.896191 112.485641c20.841248-3.806621 42.25349-9.635509 63.4754-17.224959l10.491999 24.362373c-19.15206 6.138176-37.709336 10.301667-55.719411 12.442891l46.726269 50.104645-107.275329 100.04275-76.179997-81.699596-24.790617 23.12522 99.305217 106.490214-17.748369 16.5588-99.305217-106.490214-49.581235 46.22665-17.534246-18.795189 49.605026-46.22665-99.305218-106.490214 17.748369-16.5588 99.305218 106.490214 24.790617-23.125221-76.179997-81.675805 107.27533-100.04275z m62.262039 248.382l29.239606-27.264921-59.145369-63.427817-29.239606 27.264921 59.145369 63.404026z m-76.655824-82.223007l29.215814-27.264921-59.121578-63.427817-29.263396 27.264921 59.16916 63.427817z m-13.727626-105.776473l59.145369 63.427818 28.692404-26.789093-59.145369-63.404026-28.692404 26.765301z m105.372019 55.433914l-28.716194 26.789093 59.145369 63.404026 28.716194-26.765301-59.145369-63.427818z m7.06604-108.060445c-1.90331 17.843535-5.567183 36.40081-10.277876 55.433914l-22.43527-8.350774c5.234103-19.508931 8.636271-37.828293 10.277875-55.957324l22.435271 8.874184z" fill="#d81e06" p-id="2550"></path></svg>