<?xml version="1.0" standalone="no"?><!DOCTYPE svg PUBLIC "-//W3C//DTD SVG 1.1//EN" "http://www.w3.org/Graphics/SVG/1.1/DTD/svg11.dtd"><svg t="1609153787468" class="icon" viewBox="0 0 1375 1024" version="1.1" xmlns="http://www.w3.org/2000/svg" p-id="5470" xmlns:xlink="http://www.w3.org/1999/xlink" width="268.5546875" height="200"><defs><style type="text/css"></style></defs><path d="M972.22997 972.311885a176.373473 176.373473 0 0 1-249.489109 0c-27.070384-27.006388-43.005433-43.037431-43.005433-43.037431L636.761993 972.311885a176.501465 176.501465 0 0 1-249.585103-249.553105C406.375744 703.687919 597.980308 512.019359 597.980308 512.019359L387.17689 301.279937a176.437469 176.437469 0 1 1 249.585103-249.585103l42.973435 43.005434 43.005433-42.973435a176.437469 176.437469 0 0 1 249.457111 249.553104L761.45855 512.019359l210.803418 210.739421a176.437469 176.437469 0 0 1 0 249.553105z m-293.390488-379.401354s-184.916963 186.708856-209.875473 211.635368a60.796371 60.796371 0 1 0 86.010866 85.978868c22.814638-22.878634 43.005433-43.037431 43.005433-43.037431l-65.084115-65.02012 81.787118-81.75512 65.052117 65.084116 65.020119-65.084116 81.755121 81.75512-64.988121 65.02012 42.973435 43.037431a60.796371 60.796371 0 0 0 85.94687-85.978868l-211.60337-211.635368zM133.432036 469.045924c-11.839293 11.839293-17.75894 27.390365-17.75894 42.973435s5.919647 31.102144 17.75894 42.973435a60.924364 60.924364 0 0 0 86.042864 0L262.448335 512.019359l-42.973435-42.973435a60.860367 60.860367 0 0 0-86.074862 0z m757.010816-249.553105a60.764373 60.764373 0 1 0-85.94687-85.978868c-22.910633 22.846636-42.973435 42.973435-42.973435 42.973435l64.988121 65.084115-81.755121 81.691124-65.020119-65.020119L614.683311 323.230627l-81.787118-81.691124 65.052117-65.084115-42.973435-42.973435a60.828369 60.828369 0 0 0-86.042864 85.978868c24.990508 24.926512 209.907471 211.635368 209.907471 211.635368l211.60337-211.635368z m247.79321 249.553105L1095.262627 512.019359l42.973435 42.973435a60.892365 60.892365 0 0 0 86.042864 0 60.668379 60.668379 0 0 0 0-85.978868 60.828369 60.828369 0 0 0-86.074863 0zM51.676916 636.779912A175.861503 175.861503 0 0 1 0 511.987361a176.437469 176.437469 0 0 1 301.262018-124.792552c19.742822 19.838816 42.973435 43.037431 42.973435 43.037432l64.988121-64.988122 81.787119 81.691125L425.926578 512.019359l65.084115 65.020119-81.787119 81.723122-64.988121-65.020119-42.973435 43.037431a176.501465 176.501465 0 0 1-249.585102 0z m1254.35713 0a176.501465 176.501465 0 0 1-249.585103 0l-42.973435-43.037431-65.052117 65.020119-81.75512-81.723122L931.784384 512.019359l-65.084115-65.052117 81.75512-81.723123 65.052117 64.988122 42.973435-42.973436a176.469467 176.469467 0 1 1 249.585103 249.521107z" fill="#d81e06" p-id="5471" data-spm-anchor-id="a313x.7781069.0.i7" class="selected"></path></svg>