<?xml version="1.0" standalone="no"?><!DOCTYPE svg PUBLIC "-//W3C//DTD SVG 1.1//EN" "http://www.w3.org/Graphics/SVG/1.1/DTD/svg11.dtd"><svg t="1610334956901" class="icon" viewBox="0 0 1024 1024" version="1.1" xmlns="http://www.w3.org/2000/svg" p-id="2966" xmlns:xlink="http://www.w3.org/1999/xlink" width="128" height="128"><defs><style type="text/css"></style></defs><path d="M457.728 246.784h132.096v33.792H457.728z" p-id="2967" fill="#2a70ff"></path><path d="M512 0C229.376 0 0 228.864 0 512c0 282.624 229.376 512 512 512s512-229.376 512-512C1024 228.864 794.624 0 512 0z m132.608 259.584h18.432c48.64 0 88.064 38.4 88.064 86.016v283.648c0 6.656-5.632 11.776-12.288 11.776s-11.776-5.12-12.288-11.776V345.6c0-33.792-28.672-61.44-63.488-61.44h-18.432c-6.656 0-12.288-5.632-12.288-12.288 0-6.656 5.632-12.288 12.288-12.288z m10.24 166.4H362.496c-6.656 0-12.288-5.632-12.288-12.288 0-6.656 5.632-12.288 12.288-12.288h292.352c6.656 0 12.288 5.632 12.288 12.288 0 6.656-5.632 12.288-12.288 12.288z m12.288 100.352c0 6.656-5.632 12.288-12.288 12.288H362.496c-6.656 0-12.288-5.632-12.288-12.288 0-6.656 5.632-12.288 12.288-12.288h292.352c6.656 0 12.288 5.632 12.288 12.288zM433.152 240.128c0-9.728 8.192-17.92 17.92-17.92h145.408c9.728 0 17.92 8.192 17.92 17.92v47.104c0 9.728-8.192 17.92-17.92 17.92H451.072c-9.728 0-17.92-8.192-17.92-17.92v-47.104z m147.968 561.152h-220.16c-48.64 0-88.064-38.4-88.064-86.016V345.6c0-47.104 39.424-86.016 88.064-86.016h36.352c6.656 0 12.288 5.632 12.288 12.288 0 6.656-5.632 12.288-12.288 12.288h-36.352c-35.328 0-63.488 27.648-63.488 61.44v370.176c0 33.792 28.672 61.44 63.488 61.44h220.16c6.656 0 12.288 5.12 12.288 11.776 0 6.656-5.632 12.288-12.288 12.288z m3.072-150.016H362.496c-6.656 0-12.288-5.632-12.288-12.288 0-6.656 5.632-12.288 12.288-12.288h221.696c7.168 0.512 12.288 5.632 12.288 12.288 0 6.656-5.632 12.288-12.288 12.288z m174.592 51.2l-71.168 70.144c-2.048 2.56-5.12 3.584-8.192 3.584-3.072 0-6.144-1.024-8.192-3.584l-34.816-35.328c-4.608-4.608-4.608-11.776 0-16.384 4.608-4.608 11.776-4.608 16.384 0l26.624 27.136L742.4 686.08c4.608-4.608 11.776-4.608 16.384 0 4.608 4.608 4.608 11.776 0 16.384z" p-id="2968" fill="#2a70ff"></path></svg>