<?xml version="1.0" standalone="no"?><!DOCTYPE svg PUBLIC "-//W3C//DTD SVG 1.1//EN" "http://www.w3.org/Graphics/SVG/1.1/DTD/svg11.dtd"><svg class="icon" width="200px" height="199.22px" viewBox="0 0 1028 1024" version="1.1" xmlns="http://www.w3.org/2000/svg"><path d="M739.967571 355.206749c-25.598872-22.399013-51.197744-31.99859-76.796616-31.99859-25.598872 0-51.197744 9.599577-73.596757 28.798731-3.199859 3.199859-9.599577 9.599577-19.199154 15.999295-54.397603 44.798026-220.790271 198.391258-223.99013 201.591117-12.799436 12.799436-28.798731 19.199154-47.997885 19.199154-15.999295 0-31.99859-6.399718-51.197745-25.598872-12.799436-12.799436-70.396898-57.597462-134.394078-131.194219-41.598167-44.798026-73.596757-86.396193-73.596757-86.396193s-6.399718 15.999295-12.799436 25.598872c-3.199859 9.599577 0 15.999295 0 15.999295 22.399013 31.99859 121.594642 153.593232 262.388439 275.187874 25.598872 22.399013 51.197744 31.99859 76.796616 31.99859 25.598872 0 51.197744-9.599577 73.596757-28.798731 3.199859-3.199859 9.599577-9.599577 19.199154-15.999295 6.399718-6.399718 12.799436-12.799436 22.399013-19.199154 54.397603-47.997885 137.593937-124.794501 179.192104-166.392668 9.599577-9.599577 19.199154-15.999295 22.399013-19.199154 12.799436-12.799436 28.798731-19.199154 47.997885-19.199154 15.999295 0 31.99859 9.599577 51.197745 25.598872 28.798731 25.598872 76.796616 70.396898 134.394078 131.194219 41.598167 44.798026 73.596757 86.396193 73.596757 86.396193s6.399718-15.999295 12.799436-25.598872c3.199859-9.599577 0-12.799436 0-15.999295-89.596052-118.394783-227.189989-239.989425-262.388439-271.988015z" fill="#9FC92B" /><path d="M464.779697 185.614221c-47.997885 35.198449-239.989425 214.390553-275.187875 255.988721 0 0 25.598872 28.798731 67.197039 63.99718 9.599577 9.599577 22.399013 6.399718 35.19845-3.199859 73.596757-73.596757 223.99013-207.990835 246.389143-227.189989 57.597462-47.997885 121.594642-54.397603 182.391963-6.399718 147.193514 111.995065 278.387734 287.987311 300.786747 319.9859l6.399718-31.99859s3.199859-12.799436-3.199859-25.598872c-137.593937-201.591117-284.787452-326.385619-342.384914-358.384209-67.197039-28.798731-143.993655-41.598167-217.590412 12.799436z" fill="#0285CD" /><path d="M141.593937 371.206044c92.795911-92.795911 195.191399-185.591822 252.788862-230.389849 99.195629-76.796616 217.590412-86.396193 329.585477 6.399718 41.598167 35.198449 79.996475 67.197039 134.394079 124.794502 70.396898 76.796616 115.194924 140.793796 166.392668 214.390553 0 0 0-19.199154-6.399718-44.798026 0-3.199859-3.199859-12.799436-6.399718-19.199154-9.599577-19.199154-54.397603-95.99577-118.394783-172.792387-127.99436-150.393373-207.990835-195.191399-259.18858-223.99013-67.197039-35.198449-201.591117-47.997885-326.385618 54.397603-95.99577 76.796616-217.590412 191.99154-246.389144 223.990131 0 0 22.399013 28.798731 60.797321 63.99718 6.399718 9.599577 12.799436 9.599577 19.199154 3.199859zM563.975326 838.385459c47.997885-35.198449 239.989425-214.390553 275.187875-255.988721 0 0-25.598872-28.798731-67.19704-63.99718-9.599577-9.599577-22.399013-6.399718-35.198449 3.199859-73.596757 73.596757-223.99013 207.990835-246.389143 227.189989-57.597462 47.997885-121.594642 54.397603-182.391963 6.399718-147.193514-111.995065-278.387734-287.987311-300.786747-319.9859l-6.399718 31.99859s-3.199859 12.799436 3.199859 25.598872c137.593937 201.591117 284.787452 326.385619 342.384914 358.384209 70.396898 28.798731 143.993655 41.598167 217.590412-12.799436z" fill="#0285CD" /><path d="M890.360945 652.793636c-92.795911 92.795911-195.191399 185.591822-252.788862 230.389849-99.195629 76.796616-217.590412 86.396193-329.585477-6.399718-41.598167-35.198449-79.996475-67.197039-134.394079-124.794502-70.396898-76.796616-115.194924-140.793796-166.392668-214.390553 0 0 0 19.199154 6.399718 44.798026 0 3.199859 3.199859 12.799436 6.399718 19.199154 9.599577 19.199154 54.397603 95.99577 118.394783 172.792387 127.99436 150.393373 207.990835 195.191399 259.18858 223.99013 67.197039 35.198449 201.591117 47.997885 326.385618-54.397603 95.99577-76.796616 217.590412-191.99154 246.389144-223.990131 0 0-22.399013-28.798731-60.797321-63.99718-6.399718-9.599577-15.999295-9.599577-19.199154-3.199859z" fill="#0285CD" /></svg>